<svg xmlns="http://www.w3.org/2000/svg" xmlns:xlink="http://www.w3.org/1999/xlink" width="32" height="32" viewBox="0 0 240 240" preserveAspectRatio="xMidYMid meet" version="1.0">
  <defs>
    <clipPath id="17ba05925c">
      <path d="M 0.480469 24 L 110 24 L 110 121 L 0.480469 121 Z M 0.480469 24 " clip-rule="nonzero"/>
    </clipPath>
    <clipPath id="4b6cfc3311">
      <path d="M 141 32 L 177.359375 32 L 177.359375 81 L 141 81 Z M 141 32 " clip-rule="nonzero"/>
    </clipPath>
    <clipPath id="dbd7e63c1a">
      <rect x="0" width="178" y="0" height="158"/>
    </clipPath>
  </defs>
  <g transform="matrix(1, 0, 0, 1, 36, 30)">
    <g clip-path="url(#dbd7e63c1a)">
      <path fill="#9333ea" d="M 68.488281 61.695312 C 70.265625 65.082031 74.8125 72.652344 83.996094 78.144531 C 91.839844 82.835938 99.292969 83.753906 103.082031 83.957031 C 105.0625 84.027344 106.273438 83.390625 106.855469 83.003906 C 109.683594 81.121094 110.695312 76.488281 108.96875 71.640625 C 102.523438 67.121094 102.722656 58.261719 100.890625 51.453125 C 97.386719 38.441406 88.253906 35.222656 78.957031 27.578125 C 72.707031 22.433594 68.089844 17.300781 64.015625 10.246094 C 62.914062 8.339844 60.644531 2.867188 58.984375 1.925781 C 58.144531 1.449219 57.222656 1.683594 56.496094 2.28125 C 54.304688 4.082031 55.710938 13.128906 56.640625 15.636719 C 54.964844 15.175781 53.347656 15.429688 52.644531 17.238281 C 51.320312 20.652344 55.175781 27.871094 57.078125 30.789062 C 57.859375 31.984375 58.847656 33.027344 59.640625 34.214844 C 56.816406 34.144531 56 37.367188 56.582031 39.601562 C 57.921875 44.765625 62.691406 49.90625 66.945312 52.925781 C 63.808594 55.679688 65.71875 59.492188 68.488281 61.695312 Z M 68.488281 61.695312 " fill-opacity="1" fill-rule="nonzero"/>
      <path fill="#a855f7" d="M 18.378906 139.070312 C 21.3125 142.707031 27.484375 144.59375 31.96875 145.105469 C 31.683594 146.035156 30.914062 146.785156 30.820312 147.804688 C 30.664062 149.417969 31.933594 151.007812 33.152344 151.9375 C 36.980469 154.867188 42.609375 153.738281 46.832031 152.304688 C 47.320312 157.683594 55.121094 156.28125 58.519531 154.585938 C 59.191406 154.25 60.960938 152.882812 61.363281 152.78125 C 61.882812 152.648438 61.855469 154.132812 62.292969 154.378906 C 65.925781 158.152344 71.449219 154.601562 74.589844 151.84375 C 80.976562 146.242188 82.800781 140.160156 87.511719 133.878906 C 87.871094 133.402344 89.039062 131.851562 89.433594 131.625 C 90.324219 131.113281 90.878906 131.625 91.757812 131.644531 C 109.324219 132.023438 119.394531 117.179688 122.703125 101.492188 C 125.492188 88.285156 121.667969 76.34375 139.613281 75.203125 C 140.371094 75.15625 141.140625 75.222656 141.902344 75.207031 C 142.066406 75.296875 143.304688 75.964844 143.625 75.625 C 143.890625 75.34375 143.488281 74.421875 142.628906 73.339844 C 139.726562 67.941406 138.917969 62.214844 133.292969 58.757812 C 127.21875 55.03125 121.066406 55.933594 115.363281 59.78125 C 111.792969 62.1875 109.277344 65.679688 105.488281 67.765625 C 100.582031 71.148438 93.898438 76.558594 87.628906 84.660156 C 81.835938 92.152344 78.386719 99.363281 76.324219 104.695312 C 70.105469 122 51.476562 127.515625 35.03125 130.398438 C 30.636719 131.171875 25.421875 131.382812 21.234375 132.398438 C 17.753906 133.242188 15.867188 135.953125 18.378906 139.070312 Z M 18.378906 139.070312 " fill-opacity="1" fill-rule="nonzero"/>
      <g clip-path="url(#17ba05925c)">
        <path fill="#9333ea" d="M 2.199219 45.230469 C 0.601562 47.417969 4.019531 52.636719 4.441406 53.199219 C 6.328125 55.730469 8.910156 57.9375 10.84375 59.21875 C 10.84375 59.21875 8.984375 60.375 8.984375 60.375 C 5.941406 66.617188 13.632812 70.742188 18.273438 72.917969 C 15.691406 74.078125 14.925781 76.617188 15.910156 79.230469 C 17.503906 83.460938 23.953125 85.574219 28.03125 86.277344 C 22.789062 90.046875 27.335938 94.195312 31.6875 95.734375 C 34.207031 96.625 36.359375 96.648438 38.824219 97.191406 C 39.140625 97.257812 39.425781 97.183594 39.640625 97.535156 C 33.902344 99.890625 35.207031 104.179688 40.253906 106.445312 C 46.046875 109.042969 54.035156 109.464844 60.3125 109.5 C 58.152344 111.328125 56.007812 114.089844 58.679688 116.582031 C 61.855469 119.542969 71.78125 118.457031 75.921875 117.792969 C 78.183594 117.429688 80.375 116.71875 82.605469 116.230469 C 81.734375 120.839844 86.765625 121.5 90.035156 119.945312 C 92.273438 119.234375 99.679688 116.574219 104.933594 108.824219 C 110.257812 100.96875 109.917969 92.988281 109.734375 90.664062 C 108.765625 84.796875 106.070312 75.386719 98.222656 67.417969 C 93.710938 62.839844 88.917969 60.179688 85.390625 58.632812 C 75.042969 55.28125 64.128906 54.523438 53.574219 52.019531 C 40.476562 48.917969 28.898438 45.035156 18.503906 36.230469 C 15.183594 33.417969 12.332031 29.859375 8.988281 27.167969 C 7.046875 25.601562 4.269531 23.339844 2.023438 25.777344 C -1.558594 29.660156 2.535156 39.480469 5.269531 43.195312 C 5.296875 43.40625 5.292969 43.488281 5.257812 43.519531 C 5.15625 43.605469 4.960938 43.546875 4.925781 43.539062 C 4.445312 43.40625 2.765625 44.453125 2.199219 45.230469 Z M 2.199219 45.230469 " fill-opacity="1" fill-rule="nonzero"/>
      </g>
      <g clip-path="url(#4b6cfc3311)">
        <path fill="#a855f7" d="M 141.183594 79.167969 C 141.15625 79.480469 141.273438 79.695312 141.273438 79.695312 C 141.324219 79.792969 141.398438 79.882812 141.503906 79.972656 C 141.699219 80.15625 141.910156 80.230469 142.175781 80.160156 C 143.023438 79.941406 143.75 75.648438 144.078125 74.609375 C 145.125 71.304688 146.550781 68.011719 149.070312 65.554688 C 148.832031 68.230469 149.121094 69.167969 151.050781 70.890625 C 152.6875 72.351562 154.675781 73.152344 155.457031 75.535156 C 155.652344 75.339844 155.898438 75.191406 155.988281 74.910156 C 156.40625 73.585938 156.875 69.136719 156.730469 67.761719 C 156.441406 64.898438 154.152344 63.121094 151.394531 62.882812 C 152.902344 61.460938 154.402344 59.726562 156.035156 58.46875 C 156.269531 58.289062 156.332031 58.019531 156.734375 58.121094 C 156.910156 60.628906 156.867188 62.898438 159.304688 64.261719 C 162.03125 65.789062 164.78125 65.183594 167.730469 65.050781 C 167.730469 65.050781 168.007812 64.382812 168.007812 64.382812 C 166.710938 63.394531 165.324219 62.675781 164.296875 61.359375 C 163.964844 60.929688 163.839844 60.335938 163.46875 59.863281 C 161.863281 57.808594 159.964844 57.316406 157.433594 57.308594 C 157.433594 57.308594 163.851562 51.867188 163.851562 51.867188 C 167.027344 54.59375 168.65625 55.117188 172.761719 54.058594 C 173.398438 53.894531 177.050781 52.753906 177.152344 52.414062 C 177.4375 51.464844 175.207031 51.464844 174.4375 51.21875 C 171.34375 50.230469 169.039062 48.796875 165.5625 49.992188 C 166.007812 49.253906 166.5625 48.578125 166.992188 47.828125 C 167.421875 47.078125 167.96875 45.554688 168.375 45.027344 C 168.820312 44.453125 169.976562 44.011719 170.664062 43.136719 C 171.695312 41.824219 172.117188 40.324219 171.679688 38.648438 C 171.679688 38.648438 169.625 32.578125 169.625 32.578125 C 167.308594 35.089844 165.632812 37.953125 166.285156 41.488281 C 166.4375 42.300781 167.21875 43.730469 167.183594 44.285156 C 167.125 45.265625 165.417969 47.542969 164.746094 48.367188 C 164.746094 48.367188 163.890625 45.042969 163.890625 45.042969 C 163.890625 45.042969 159.0625 39.308594 159.0625 39.308594 C 158.390625 41.316406 157.800781 43.449219 158.230469 45.59375 C 158.652344 47.675781 161.003906 49.292969 162.324219 50.804688 C 162.324219 50.804688 157.546875 55.097656 157.546875 55.097656 C 156.972656 55.175781 157.261719 54.945312 157.296875 54.621094 C 157.375 53.910156 157.65625 53.238281 157.613281 52.503906 C 157.460938 49.792969 154.992188 47.996094 152.804688 46.84375 C 152.804688 46.84375 150.933594 45.117188 150.933594 45.117188 C 149.167969 49.628906 150.910156 54.621094 155.34375 56.617188 C 155.40625 56.90625 155.167969 57.019531 154.992188 57.191406 C 153.804688 58.308594 152.464844 59.335938 151.257812 60.433594 C 150.945312 60.714844 150.972656 61.511719 150.464844 61.023438 C 150.921875 56.121094 145.078125 55.984375 144.410156 51.632812 C 144.410156 51.632812 143.746094 51.632812 143.746094 51.632812 C 141.523438 56.828125 141.472656 62.652344 148.378906 63.351562 C 148.378906 63.351562 144.777344 68.691406 144.777344 68.691406 C 144.300781 69.660156 143.828125 70.628906 143.351562 71.597656 C 142.085938 75.734375 141.210938 78.789062 141.183594 79.167969 Z M 141.183594 79.167969 " fill-opacity="1" fill-rule="nonzero"/>
      </g>
    </g>
  </g>
</svg>