<svg data-v-945817e2="" class="leaves" xmlns="http://www.w3.org/2000/svg" viewBox="0 0 77.94 187.1"><path data-v-945817e2="" fill="currentColor" d="M56.66,116.04l-4.48,15.01c5.65-3.86,13.52-10.21,20.52-10.99,2.05-.23,1.76.74,1.3,2.31-2.76,9.34-16.23,20.61-26.64,17.86l-8.18,13.32c1.99-.57,3.99-1.15,5.98-1.72,2.87-.83,5.73-1.79,8.67-2.32,2.17-.39,4.32-.32,6.51-.37,1.28-.03,2.56-.09,3.83-.09.36,1.53-.68,1.94-1.49,3-3.83,5-12.98,11.07-19.29,11.76-3.86.42-9.63-1.95-11.19-1.29-.74.31-1.37,1.08-1.92,1.63-.96.96-1.88,1.96-2.79,2.95-.85.93-1.7,1.87-2.57,2.78-1.03,1.08-2.32,1.4-3.45,2.31-.2.16-.4.37-.44.63-.05.33.14.64.33.91.07.1.14.2.25.24.13.05.27.01.4-.03,4.08-1.29,8.2-1.99,12.5-1.83,2.13.08,4.26.32,6.36.67,1.07.18,2.14.38,3.21.6.54.11,1.08.23,1.62.35.3.07,1.28.12,1.48.34,2.07,2.26-10.5,7.97-12.02,8.47-4.53,1.47-9.49,2.17-14.24,1.29-2.91-.54-6.26-3.75-8.07-3.57-1.6.15-8.29,5.15-10.64,6.33-.35.18-.71.35-1.06.53-.31-.73-.68-1.43-1.12-2.09,4.04-2.37,7.92-5,12.15-7.02-4.65-9.88-1.13-20.55,3.02-29.94,2.83-2.2,5.82,10.16,5.92,11.64.15,2.17-.31,4.31-.82,6.41-.26,1.05-.53,2.09-.74,3.15-.1.49-.08,2.48-.38,2.8.62-.64,1.24-1.29,1.86-1.93,3.33-3.46,6.67-6.92,10-10.39-6.82-8.4-4.89-18.88-2.86-28.68,2.04-.5,3.19,2.11,4.19,3.54,1.17,1.68,2.22,3.5,2.97,5.37.8,2.03,1.43,4.17,1.6,6.35.33,4.36-.61,7.18.05,7.18,1.19-2.13,3.56-5.71,4.76-7.84s2.28-4.08,3.43-6.12c-3.97-5.07-6.21-8.99-7.55-15.42-.41-1.97-2.3-12.9.05-13.03,3.94-.22,12.85,14.47,11.52,18.97l5.58-14.4c-9.83-3.7-12.24-17.38-14.58-26.58,8.67.84,12.34,8.9,16.99,14.99l.85-15.34c-8.71-5.16-16.99-12.15-18.83-22.66,7.22,1.85,13.6,4.24,17.49,11,1.33-2.56-.72-14.22-2.51-15.49-9.41-1.43-15.9-7.26-21.98-14.02-.42-2.27.99-1.37,2.48-1.49,2.68-.21,5.43-.12,8.04.57s4.36,1.82,6.17,3.68c.45.46.91.93,1.46,1.27s1.21.55,1.85.45c-1.99-4.51-3.96-9.03-5.94-13.54,0,0-1.75-1.25-1.75-1.25-9.39.51-17.53-3.43-24.29-9.69,5.86-4.07,14.28-1.89,19.97,1.5-1.77-7.66-9.49-8.48-14.64-13.35-1.96-1.85-9.65-11.98-10.34-14.17-.44-1.4.05-1.73,1.41-1.42,3.49.8,11.68,5.72,14.22,8.29,5.62,5.72,5.16,14.4,11.35,19.64-.91-5.93-1.03-10.3.32-16.19.45-1.95,1.03-8.05,3.55-4.17,3.82,5.86,6.37,14.67,4.91,21.64-.6,2.87-3.98,5.4-3.62,7.97l6.36,13.75c1.89-6.81,3.08-14.7,7.51-20.47.68-.89,1.09-.32,1.48.48,2.58,5.37,2.76,16.13.74,21.73-1.33,3.69-5.75,6.11-6.24,8.81l2.01,15.46c3.25-3.88,4.39-8.7,7.58-12.91,1.71-2.26,4.02-4.01,5.92-6.08,3.17,6.84-.74,21.77-6.44,26.56-2.1,1.77-5.82,4.18-5.82,4.18-.86,4.33-1.02,11.5-1.23,16.25,2.5-3.12,4.81-6.79,8.05-9.16,1.08-.79,2.07-1.73,3.08-2.6,1.89-1.63,3.93-3.48,6.37-4.22,2.92-.88-.1,6.21-.5,7.5-3.35,10.69-8.35,16.64-19.52,19.48Z"></path></svg>