<svg id="Layer_1" xmlns="http://www.w3.org/2000/svg" viewBox="0 0 85.27 139.02" class="absolute bottom-[30px] left-[10px] w-[50px] translate-y-full rotate-[160deg] scale-y-[-1] text-white drop-shadow-lg md:left-[30px] md:w-[80px] !bottom-3 !left-4 !w-[40px]" data-v-28339cbe=""><path fill="currentColor" d="M2.08,139.02c-1.16-1.36-1.86-2.58-2.04-4.44-.88-8.9,14.36-24.31,18.28-33.37,1.12-2.59.56-6.01,2.49-8.43,10.55-.19,2.82,16.45-.93,21.4,34.17-10.22,72.07-53.84,55.56-91.03-3.41-7.69-14.09-14.67-6.6-23.14,1.85-.43,7.52,8.41,8.56,10.26,23.33,41.39-8.62,98.78-50.59,112.87-.17,1.77,3.33,1.05,4.43.97,5.41-.41,20.71-4.12,24.6-2.82,2.44.81,3.51,10.2-2.06,11.55-12.63,3.06-29.11,2.65-42.19,5.27l-1.59.9H2.08Z"></path></svg>