<svg xmlns="http://www.w3.org/2000/svg" xmlns:xlink="http://www.w3.org/1999/xlink" width="320" zoomAndPan="magnify" viewBox="0 0 240 239.999995" height="320" preserveAspectRatio="xMidYMid meet" version="1.0"><defs><radialGradient gradientTransform="matrix(1, 0, 0, 1, 0.00000265, 0)" gradientUnits="userSpaceOnUse" r="169.705496" cx="119.999997" id="9745fb0d75" cy="119.999997" fx="119.999997" fy="119.999997"><stop stop-opacity="1" stop-color="rgb(0.187683%, 28.93219%, 67.808533%)" offset="0"/><stop stop-opacity="1" stop-color="rgb(0.469971%, 28.800964%, 67.762756%)" offset="0.0078125"/><stop stop-opacity="1" stop-color="rgb(0.657654%, 28.712463%, 67.732239%)" offset="0.0117188"/><stop stop-opacity="1" stop-color="rgb(0.846863%, 28.625488%, 67.701721%)" offset="0.015625"/><stop stop-opacity="1" stop-color="rgb(1.034546%, 28.538513%, 67.671204%)" offset="0.0195312"/><stop stop-opacity="1" stop-color="rgb(1.223755%, 28.451538%, 67.640686%)" offset="0.0234375"/><stop stop-opacity="1" stop-color="rgb(1.411438%, 28.364563%, 67.610168%)" offset="0.0273438"/><stop stop-opacity="1" stop-color="rgb(1.600647%, 28.276062%, 67.578125%)" offset="0.03125"/><stop stop-opacity="1" stop-color="rgb(1.78833%, 28.189087%, 67.547607%)" offset="0.0351562"/><stop stop-opacity="1" stop-color="rgb(1.977539%, 28.102112%, 67.51709%)" offset="0.0390625"/><stop stop-opacity="1" stop-color="rgb(2.165222%, 28.015137%, 67.486572%)" offset="0.0429688"/><stop stop-opacity="1" stop-color="rgb(2.354431%, 27.926636%, 67.456055%)" offset="0.046875"/><stop stop-opacity="1" stop-color="rgb(2.542114%, 27.839661%, 67.425537%)" offset="0.0507812"/><stop stop-opacity="1" stop-color="rgb(2.731323%, 27.752686%, 67.39502%)" offset="0.0546875"/><stop stop-opacity="1" stop-color="rgb(2.919006%, 27.66571%, 67.364502%)" offset="0.0585938"/><stop stop-opacity="1" stop-color="rgb(3.108215%, 27.578735%, 67.333984%)" offset="0.0625"/><stop stop-opacity="1" stop-color="rgb(3.295898%, 27.490234%, 67.303467%)" offset="0.0664062"/><stop stop-opacity="1" stop-color="rgb(3.485107%, 27.403259%, 67.272949%)" offset="0.0703125"/><stop stop-opacity="1" stop-color="rgb(3.672791%, 27.316284%, 67.242432%)" offset="0.0742188"/><stop stop-opacity="1" stop-color="rgb(3.862%, 27.229309%, 67.211914%)" offset="0.078125"/><stop stop-opacity="1" stop-color="rgb(4.049683%, 27.142334%, 67.181396%)" offset="0.0820312"/><stop stop-opacity="1" stop-color="rgb(4.238892%, 27.053833%, 67.150879%)" offset="0.0859375"/><stop stop-opacity="1" stop-color="rgb(4.426575%, 26.966858%, 67.118835%)" offset="0.0898438"/><stop stop-opacity="1" stop-color="rgb(4.615784%, 26.879883%, 67.088318%)" offset="0.09375"/><stop stop-opacity="1" stop-color="rgb(4.803467%, 26.792908%, 67.0578%)" offset="0.0976562"/><stop stop-opacity="1" stop-color="rgb(4.992676%, 26.704407%, 67.027283%)" offset="0.101562"/><stop stop-opacity="1" stop-color="rgb(5.180359%, 26.617432%, 66.996765%)" offset="0.105469"/><stop stop-opacity="1" stop-color="rgb(5.369568%, 26.530457%, 66.966248%)" offset="0.109375"/><stop stop-opacity="1" stop-color="rgb(5.557251%, 26.443481%, 66.93573%)" offset="0.113281"/><stop stop-opacity="1" stop-color="rgb(5.74646%, 26.356506%, 66.905212%)" offset="0.117188"/><stop stop-opacity="1" stop-color="rgb(5.934143%, 26.268005%, 66.874695%)" offset="0.121094"/><stop stop-opacity="1" stop-color="rgb(6.123352%, 26.18103%, 66.844177%)" offset="0.125"/><stop stop-opacity="1" stop-color="rgb(6.311035%, 26.094055%, 66.81366%)" offset="0.128906"/><stop stop-opacity="1" stop-color="rgb(6.500244%, 26.00708%, 66.783142%)" offset="0.132812"/><stop stop-opacity="1" stop-color="rgb(6.687927%, 25.918579%, 66.752625%)" offset="0.136719"/><stop stop-opacity="1" stop-color="rgb(6.877136%, 25.831604%, 66.722107%)" offset="0.140625"/><stop stop-opacity="1" stop-color="rgb(7.064819%, 25.744629%, 66.690063%)" offset="0.144531"/><stop stop-opacity="1" stop-color="rgb(7.254028%, 25.657654%, 66.659546%)" offset="0.148438"/><stop stop-opacity="1" stop-color="rgb(7.441711%, 25.570679%, 66.629028%)" offset="0.152344"/><stop stop-opacity="1" stop-color="rgb(7.63092%, 25.482178%, 66.598511%)" offset="0.15625"/><stop stop-opacity="1" stop-color="rgb(7.818604%, 25.395203%, 66.567993%)" offset="0.160156"/><stop stop-opacity="1" stop-color="rgb(8.007812%, 25.308228%, 66.537476%)" offset="0.164062"/><stop stop-opacity="1" stop-color="rgb(8.195496%, 25.221252%, 66.506958%)" offset="0.167969"/><stop stop-opacity="1" stop-color="rgb(8.384705%, 25.134277%, 66.47644%)" offset="0.171875"/><stop stop-opacity="1" stop-color="rgb(8.572388%, 25.045776%, 66.445923%)" offset="0.175781"/><stop stop-opacity="1" stop-color="rgb(8.761597%, 24.958801%, 66.415405%)" offset="0.179688"/><stop stop-opacity="1" stop-color="rgb(8.94928%, 24.871826%, 66.384888%)" offset="0.183594"/><stop stop-opacity="1" stop-color="rgb(9.138489%, 24.784851%, 66.35437%)" offset="0.1875"/><stop stop-opacity="1" stop-color="rgb(9.326172%, 24.69635%, 66.323853%)" offset="0.191406"/><stop stop-opacity="1" stop-color="rgb(9.515381%, 24.609375%, 66.293335%)" offset="0.195312"/><stop stop-opacity="1" stop-color="rgb(9.703064%, 24.5224%, 66.261292%)" offset="0.199219"/><stop stop-opacity="1" stop-color="rgb(9.892273%, 24.435425%, 66.230774%)" offset="0.203125"/><stop stop-opacity="1" stop-color="rgb(10.079956%, 24.34845%, 66.200256%)" offset="0.207031"/><stop stop-opacity="1" stop-color="rgb(10.269165%, 24.259949%, 66.169739%)" offset="0.210938"/><stop stop-opacity="1" stop-color="rgb(10.456848%, 24.172974%, 66.139221%)" offset="0.214844"/><stop stop-opacity="1" stop-color="rgb(10.646057%, 24.085999%, 66.108704%)" offset="0.21875"/><stop stop-opacity="1" stop-color="rgb(10.83374%, 23.999023%, 66.078186%)" offset="0.222656"/><stop stop-opacity="1" stop-color="rgb(11.022949%, 23.912048%, 66.047668%)" offset="0.226562"/><stop stop-opacity="1" stop-color="rgb(11.210632%, 23.823547%, 66.017151%)" offset="0.230469"/><stop stop-opacity="1" stop-color="rgb(11.399841%, 23.736572%, 65.986633%)" offset="0.234375"/><stop stop-opacity="1" stop-color="rgb(11.587524%, 23.649597%, 65.956116%)" offset="0.238281"/><stop stop-opacity="1" stop-color="rgb(11.776733%, 23.562622%, 65.925598%)" offset="0.242188"/><stop stop-opacity="1" stop-color="rgb(11.964417%, 23.474121%, 65.895081%)" offset="0.246094"/><stop stop-opacity="1" stop-color="rgb(12.153625%, 23.387146%, 65.864563%)" offset="0.25"/><stop stop-opacity="1" stop-color="rgb(12.435913%, 23.257446%, 65.817261%)" offset="0.253906"/><stop stop-opacity="1" stop-color="rgb(12.812805%, 23.08197%, 65.756226%)" offset="0.261719"/><stop stop-opacity="1" stop-color="rgb(13.189697%, 22.90802%, 65.69519%)" offset="0.269531"/><stop stop-opacity="1" stop-color="rgb(13.566589%, 22.732544%, 65.634155%)" offset="0.277344"/><stop stop-opacity="1" stop-color="rgb(13.943481%, 22.558594%, 65.57312%)" offset="0.285156"/><stop stop-opacity="1" stop-color="rgb(14.320374%, 22.383118%, 65.512085%)" offset="0.292969"/><stop stop-opacity="1" stop-color="rgb(14.697266%, 22.209167%, 65.45105%)" offset="0.300781"/><stop stop-opacity="1" stop-color="rgb(15.074158%, 22.035217%, 65.388489%)" offset="0.308594"/><stop stop-opacity="1" stop-color="rgb(15.45105%, 21.859741%, 65.327454%)" offset="0.316406"/><stop stop-opacity="1" stop-color="rgb(15.827942%, 21.685791%, 65.266418%)" offset="0.324219"/><stop stop-opacity="1" stop-color="rgb(16.204834%, 21.510315%, 65.205383%)" offset="0.332031"/><stop stop-opacity="1" stop-color="rgb(16.581726%, 21.336365%, 65.144348%)" offset="0.339844"/><stop stop-opacity="1" stop-color="rgb(16.958618%, 21.160889%, 65.083313%)" offset="0.347656"/><stop stop-opacity="1" stop-color="rgb(17.333984%, 20.986938%, 65.022278%)" offset="0.355469"/><stop stop-opacity="1" stop-color="rgb(17.710876%, 20.812988%, 64.959717%)" offset="0.363281"/><stop stop-opacity="1" stop-color="rgb(18.087769%, 20.637512%, 64.898682%)" offset="0.371094"/><stop stop-opacity="1" stop-color="rgb(18.464661%, 20.463562%, 64.837646%)" offset="0.378906"/><stop stop-opacity="1" stop-color="rgb(18.841553%, 20.288086%, 64.776611%)" offset="0.386719"/><stop stop-opacity="1" stop-color="rgb(19.218445%, 20.114136%, 64.715576%)" offset="0.394531"/><stop stop-opacity="1" stop-color="rgb(19.595337%, 19.93866%, 64.654541%)" offset="0.402344"/><stop stop-opacity="1" stop-color="rgb(19.972229%, 19.764709%, 64.593506%)" offset="0.410156"/><stop stop-opacity="1" stop-color="rgb(20.349121%, 19.590759%, 64.530945%)" offset="0.417969"/><stop stop-opacity="1" stop-color="rgb(20.726013%, 19.415283%, 64.46991%)" offset="0.425781"/><stop stop-opacity="1" stop-color="rgb(21.102905%, 19.241333%, 64.408875%)" offset="0.433594"/><stop stop-opacity="1" stop-color="rgb(21.479797%, 19.065857%, 64.347839%)" offset="0.441406"/><stop stop-opacity="1" stop-color="rgb(21.856689%, 18.891907%, 64.286804%)" offset="0.449219"/><stop stop-opacity="1" stop-color="rgb(22.233582%, 18.716431%, 64.225769%)" offset="0.457031"/><stop stop-opacity="1" stop-color="rgb(22.610474%, 18.54248%, 64.164734%)" offset="0.464844"/><stop stop-opacity="1" stop-color="rgb(22.987366%, 18.367004%, 64.102173%)" offset="0.472656"/><stop stop-opacity="1" stop-color="rgb(23.364258%, 18.193054%, 64.041138%)" offset="0.480469"/><stop stop-opacity="1" stop-color="rgb(23.74115%, 18.019104%, 63.980103%)" offset="0.488281"/><stop stop-opacity="1" stop-color="rgb(24.118042%, 17.843628%, 63.919067%)" offset="0.496094"/><stop stop-opacity="1" stop-color="rgb(24.401855%, 17.712402%, 63.873291%)" offset="0.503906"/><stop stop-opacity="1" stop-color="rgb(24.589539%, 17.625427%, 63.842773%)" offset="0.507812"/><stop stop-opacity="1" stop-color="rgb(24.778748%, 17.538452%, 63.812256%)" offset="0.511719"/><stop stop-opacity="1" stop-color="rgb(24.966431%, 17.451477%, 63.781738%)" offset="0.515625"/><stop stop-opacity="1" stop-color="rgb(25.15564%, 17.362976%, 63.751221%)" offset="0.519531"/><stop stop-opacity="1" stop-color="rgb(25.343323%, 17.276001%, 63.720703%)" offset="0.523438"/><stop stop-opacity="1" stop-color="rgb(25.532532%, 17.189026%, 63.690186%)" offset="0.527344"/><stop stop-opacity="1" stop-color="rgb(25.720215%, 17.102051%, 63.658142%)" offset="0.53125"/><stop stop-opacity="1" stop-color="rgb(25.909424%, 17.01355%, 63.627625%)" offset="0.535156"/><stop stop-opacity="1" stop-color="rgb(26.097107%, 16.926575%, 63.597107%)" offset="0.539062"/><stop stop-opacity="1" stop-color="rgb(26.286316%, 16.8396%, 63.566589%)" offset="0.542969"/><stop stop-opacity="1" stop-color="rgb(26.473999%, 16.752625%, 63.536072%)" offset="0.546875"/><stop stop-opacity="1" stop-color="rgb(26.663208%, 16.665649%, 63.505554%)" offset="0.550781"/><stop stop-opacity="1" stop-color="rgb(26.850891%, 16.577148%, 63.475037%)" offset="0.554688"/><stop stop-opacity="1" stop-color="rgb(27.0401%, 16.490173%, 63.444519%)" offset="0.558594"/><stop stop-opacity="1" stop-color="rgb(27.227783%, 16.403198%, 63.414001%)" offset="0.5625"/><stop stop-opacity="1" stop-color="rgb(27.416992%, 16.316223%, 63.383484%)" offset="0.566406"/><stop stop-opacity="1" stop-color="rgb(27.604675%, 16.229248%, 63.352966%)" offset="0.570312"/><stop stop-opacity="1" stop-color="rgb(27.793884%, 16.140747%, 63.322449%)" offset="0.574219"/><stop stop-opacity="1" stop-color="rgb(27.981567%, 16.053772%, 63.291931%)" offset="0.578125"/><stop stop-opacity="1" stop-color="rgb(28.170776%, 15.966797%, 63.261414%)" offset="0.582031"/><stop stop-opacity="1" stop-color="rgb(28.358459%, 15.879822%, 63.22937%)" offset="0.585938"/><stop stop-opacity="1" stop-color="rgb(28.547668%, 15.791321%, 63.198853%)" offset="0.589844"/><stop stop-opacity="1" stop-color="rgb(28.735352%, 15.704346%, 63.168335%)" offset="0.59375"/><stop stop-opacity="1" stop-color="rgb(28.924561%, 15.617371%, 63.137817%)" offset="0.597656"/><stop stop-opacity="1" stop-color="rgb(29.112244%, 15.530396%, 63.1073%)" offset="0.601562"/><stop stop-opacity="1" stop-color="rgb(29.301453%, 15.44342%, 63.076782%)" offset="0.605469"/><stop stop-opacity="1" stop-color="rgb(29.489136%, 15.354919%, 63.046265%)" offset="0.609375"/><stop stop-opacity="1" stop-color="rgb(29.678345%, 15.267944%, 63.015747%)" offset="0.613281"/><stop stop-opacity="1" stop-color="rgb(29.866028%, 15.180969%, 62.985229%)" offset="0.617188"/><stop stop-opacity="1" stop-color="rgb(30.055237%, 15.093994%, 62.954712%)" offset="0.621094"/><stop stop-opacity="1" stop-color="rgb(30.24292%, 15.005493%, 62.924194%)" offset="0.625"/><stop stop-opacity="1" stop-color="rgb(30.525208%, 14.875793%, 62.878418%)" offset="0.628906"/><stop stop-opacity="1" stop-color="rgb(30.9021%, 14.700317%, 62.817383%)" offset="0.636719"/><stop stop-opacity="1" stop-color="rgb(31.278992%, 14.526367%, 62.754822%)" offset="0.644531"/><stop stop-opacity="1" stop-color="rgb(31.655884%, 14.352417%, 62.693787%)" offset="0.652344"/><stop stop-opacity="1" stop-color="rgb(32.032776%, 14.176941%, 62.632751%)" offset="0.660156"/><stop stop-opacity="1" stop-color="rgb(32.409668%, 14.002991%, 62.571716%)" offset="0.667969"/><stop stop-opacity="1" stop-color="rgb(32.78656%, 13.827515%, 62.510681%)" offset="0.675781"/><stop stop-opacity="1" stop-color="rgb(33.163452%, 13.653564%, 62.449646%)" offset="0.683594"/><stop stop-opacity="1" stop-color="rgb(33.540344%, 13.478088%, 62.388611%)" offset="0.691406"/><stop stop-opacity="1" stop-color="rgb(33.917236%, 13.304138%, 62.32605%)" offset="0.699219"/><stop stop-opacity="1" stop-color="rgb(34.294128%, 13.130188%, 62.265015%)" offset="0.707031"/><stop stop-opacity="1" stop-color="rgb(34.671021%, 12.954712%, 62.203979%)" offset="0.714844"/><stop stop-opacity="1" stop-color="rgb(35.047913%, 12.780762%, 62.142944%)" offset="0.722656"/><stop stop-opacity="1" stop-color="rgb(35.424805%, 12.605286%, 62.081909%)" offset="0.730469"/><stop stop-opacity="1" stop-color="rgb(35.801697%, 12.431335%, 62.020874%)" offset="0.738281"/><stop stop-opacity="1" stop-color="rgb(36.178589%, 12.255859%, 61.959839%)" offset="0.746094"/><stop stop-opacity="1" stop-color="rgb(36.460876%, 12.124634%, 61.912537%)" offset="0.753906"/><stop stop-opacity="1" stop-color="rgb(36.650085%, 12.037659%, 61.882019%)" offset="0.757812"/><stop stop-opacity="1" stop-color="rgb(36.837769%, 11.950684%, 61.851501%)" offset="0.761719"/><stop stop-opacity="1" stop-color="rgb(37.026978%, 11.863708%, 61.820984%)" offset="0.765625"/><stop stop-opacity="1" stop-color="rgb(37.214661%, 11.775208%, 61.790466%)" offset="0.769531"/><stop stop-opacity="1" stop-color="rgb(37.40387%, 11.688232%, 61.759949%)" offset="0.773438"/><stop stop-opacity="1" stop-color="rgb(37.591553%, 11.601257%, 61.729431%)" offset="0.777344"/><stop stop-opacity="1" stop-color="rgb(37.780762%, 11.514282%, 61.698914%)" offset="0.78125"/><stop stop-opacity="1" stop-color="rgb(37.968445%, 11.427307%, 61.668396%)" offset="0.785156"/><stop stop-opacity="1" stop-color="rgb(38.157654%, 11.338806%, 61.637878%)" offset="0.789062"/><stop stop-opacity="1" stop-color="rgb(38.345337%, 11.251831%, 61.607361%)" offset="0.792969"/><stop stop-opacity="1" stop-color="rgb(38.534546%, 11.164856%, 61.576843%)" offset="0.796875"/><stop stop-opacity="1" stop-color="rgb(38.722229%, 11.077881%, 61.546326%)" offset="0.800781"/><stop stop-opacity="1" stop-color="rgb(38.911438%, 10.990906%, 61.515808%)" offset="0.804688"/><stop stop-opacity="1" stop-color="rgb(39.099121%, 10.902405%, 61.483765%)" offset="0.808594"/><stop stop-opacity="1" stop-color="rgb(39.28833%, 10.81543%, 61.453247%)" offset="0.8125"/><stop stop-opacity="1" stop-color="rgb(39.570618%, 10.684204%, 61.407471%)" offset="0.816406"/><stop stop-opacity="1" stop-color="rgb(39.94751%, 10.510254%, 61.346436%)" offset="0.824219"/><stop stop-opacity="1" stop-color="rgb(40.324402%, 10.336304%, 61.2854%)" offset="0.832031"/><stop stop-opacity="1" stop-color="rgb(40.701294%, 10.160828%, 61.224365%)" offset="0.839844"/><stop stop-opacity="1" stop-color="rgb(41.078186%, 9.986877%, 61.16333%)" offset="0.847656"/><stop stop-opacity="1" stop-color="rgb(41.455078%, 9.811401%, 61.102295%)" offset="0.855469"/><stop stop-opacity="1" stop-color="rgb(41.83197%, 9.637451%, 61.039734%)" offset="0.863281"/><stop stop-opacity="1" stop-color="rgb(42.208862%, 9.461975%, 60.978699%)" offset="0.871094"/><stop stop-opacity="1" stop-color="rgb(42.49115%, 9.33075%, 60.932922%)" offset="0.878906"/><stop stop-opacity="1" stop-color="rgb(42.680359%, 9.243774%, 60.902405%)" offset="0.882812"/><stop stop-opacity="1" stop-color="rgb(42.868042%, 9.156799%, 60.871887%)" offset="0.886719"/><stop stop-opacity="1" stop-color="rgb(43.057251%, 9.069824%, 60.84137%)" offset="0.890625"/><stop stop-opacity="1" stop-color="rgb(43.244934%, 8.982849%, 60.810852%)" offset="0.894531"/><stop stop-opacity="1" stop-color="rgb(43.434143%, 8.894348%, 60.780334%)" offset="0.898438"/><stop stop-opacity="1" stop-color="rgb(43.621826%, 8.807373%, 60.749817%)" offset="0.902344"/><stop stop-opacity="1" stop-color="rgb(43.811035%, 8.720398%, 60.719299%)" offset="0.90625"/><stop stop-opacity="1" stop-color="rgb(44.093323%, 8.589172%, 60.673523%)" offset="0.910156"/><stop stop-opacity="1" stop-color="rgb(44.470215%, 8.415222%, 60.610962%)" offset="0.917969"/><stop stop-opacity="1" stop-color="rgb(44.847107%, 8.239746%, 60.549927%)" offset="0.925781"/><stop stop-opacity="1" stop-color="rgb(45.223999%, 8.065796%, 60.488892%)" offset="0.933594"/><stop stop-opacity="1" stop-color="rgb(45.506287%, 7.93457%, 60.443115%)" offset="0.941406"/><stop stop-opacity="1" stop-color="rgb(45.695496%, 7.847595%, 60.412598%)" offset="0.945312"/><stop stop-opacity="1" stop-color="rgb(45.883179%, 7.76062%, 60.38208%)" offset="0.949219"/><stop stop-opacity="1" stop-color="rgb(46.072388%, 7.672119%, 60.351562%)" offset="0.953125"/><stop stop-opacity="1" stop-color="rgb(46.354675%, 7.542419%, 60.305786%)" offset="0.957031"/><stop stop-opacity="1" stop-color="rgb(46.731567%, 7.366943%, 60.244751%)" offset="0.964844"/><stop stop-opacity="1" stop-color="rgb(47.013855%, 7.235718%, 60.198975%)" offset="0.972656"/><stop stop-opacity="1" stop-color="rgb(47.203064%, 7.148743%, 60.166931%)" offset="0.976562"/><stop stop-opacity="1" stop-color="rgb(47.485352%, 7.017517%, 60.121155%)" offset="0.980469"/><stop stop-opacity="1" stop-color="rgb(47.767639%, 6.886292%, 60.075378%)" offset="0.988281"/><stop stop-opacity="1" stop-color="rgb(48.049927%, 6.756592%, 60.029602%)" offset="0.992188"/><stop stop-opacity="1" stop-color="rgb(48.239136%, 6.669617%, 59.999084%)" offset="1"/></radialGradient><clipPath id="27450d0924"><path d="M 0.480469 24 L 110 24 L 110 121 L 0.480469 121 Z M 0.480469 24 " clip-rule="nonzero"/></clipPath><clipPath id="bb82151827"><path d="M 141 32 L 177.359375 32 L 177.359375 81 L 141 81 Z M 141 32 " clip-rule="nonzero"/></clipPath><clipPath id="845d6a031f"><rect x="0" width="178" y="0" height="158"/></clipPath></defs><rect x="-24" width="288" fill="#ffffff" y="-23.999999" height="287.999994" fill-opacity="1"/><rect x="-24" fill="url(#9745fb0d75)" width="288" y="-23.999999" height="287.999994"/><g transform="matrix(1, 0, 0, 1, 36, 30)"><g clip-path="url(#845d6a031f)"><path fill="#ffffff" d="M 68.488281 61.695312 C 70.265625 65.082031 74.8125 72.652344 83.996094 78.144531 C 91.839844 82.835938 99.292969 83.753906 103.082031 83.957031 C 105.0625 84.027344 106.273438 83.390625 106.855469 83.003906 C 109.683594 81.121094 110.695312 76.488281 108.96875 71.640625 C 102.523438 67.121094 102.722656 58.261719 100.890625 51.453125 C 97.386719 38.441406 88.253906 35.222656 78.957031 27.578125 C 72.707031 22.433594 68.089844 17.300781 64.015625 10.246094 C 62.914062 8.339844 60.644531 2.867188 58.984375 1.925781 C 58.144531 1.449219 57.222656 1.683594 56.496094 2.28125 C 54.304688 4.082031 55.710938 13.128906 56.640625 15.636719 C 54.964844 15.175781 53.347656 15.429688 52.644531 17.238281 C 51.320312 20.652344 55.175781 27.871094 57.078125 30.789062 C 57.859375 31.984375 58.847656 33.027344 59.640625 34.214844 C 56.816406 34.144531 56 37.367188 56.582031 39.601562 C 57.921875 44.765625 62.691406 49.90625 66.945312 52.925781 C 63.808594 55.679688 65.71875 59.492188 68.488281 61.695312 Z M 68.488281 61.695312 " fill-opacity="1" fill-rule="nonzero"/><path fill="#e2e3e4" d="M 56.113281 15.875 C 55.527344 14.570312 54.636719 12.128906 54.632812 8.957031 C 54.632812 8.851562 54.636719 8.75 54.636719 8.644531 C 54.699219 5.28125 55.746094 2.738281 56.40625 1.414062 C 56.550781 1.125 56.898438 1.007812 57.1875 1.152344 C 57.472656 1.292969 57.589844 1.644531 57.449219 1.929688 C 56.835938 3.164062 55.855469 5.535156 55.800781 8.664062 C 55.796875 8.761719 55.796875 8.859375 55.796875 8.957031 C 55.796875 11.910156 56.628906 14.1875 57.171875 15.398438 C 57.304688 15.691406 57.171875 16.035156 56.878906 16.167969 C 56.585938 16.300781 56.242188 16.167969 56.113281 15.875 Z M 56.113281 15.875 " fill-opacity="1" fill-rule="nonzero"/><path fill="#e2e3e4" d="M 59.140625 34.152344 C 58.035156 32.957031 56.773438 31.394531 55.574219 29.441406 C 54.398438 27.515625 53.589844 25.710938 53.027344 24.203125 C 52.917969 23.902344 53.070312 23.566406 53.371094 23.453125 C 53.671875 23.34375 54.007812 23.496094 54.117188 23.796875 C 54.65625 25.246094 55.433594 26.984375 56.566406 28.832031 C 57.71875 30.714844 58.933594 32.214844 59.992188 33.363281 C 60.210938 33.597656 60.195312 33.964844 59.960938 34.183594 C 59.726562 34.402344 59.355469 34.386719 59.140625 34.152344 Z M 59.140625 34.152344 " fill-opacity="1" fill-rule="nonzero"/><path fill="#e2e3e4" d="M 100.957031 55.023438 C 100.503906 50.59375 99.09375 47.523438 98.03125 45.679688 C 97.054688 44 95.957031 42.617188 94.582031 41.203125 C 93.207031 39.789062 91.5625 38.34375 89.523438 36.554688 C 87.441406 34.726562 85.617188 33.3125 84.308594 32.34375 C 84.050781 32.152344 83.996094 31.789062 84.1875 31.53125 C 84.378906 31.273438 84.742188 31.21875 85 31.410156 C 86.328125 32.394531 88.179688 33.828125 90.289062 35.679688 C 92.328125 37.46875 93.996094 38.929688 95.414062 40.394531 C 96.835938 41.855469 98.011719 43.324219 99.035156 45.101562 C 100.160156 47.039062 101.644531 50.285156 102.113281 54.90625 C 102.144531 55.222656 101.914062 55.507812 101.59375 55.542969 C 101.273438 55.574219 100.988281 55.34375 100.957031 55.023438 Z M 100.957031 55.023438 " fill-opacity="1" fill-rule="nonzero"/><path fill="#ffffff" d="M 18.378906 139.070312 C 21.3125 142.707031 27.484375 144.59375 31.96875 145.105469 C 31.683594 146.035156 30.914062 146.785156 30.820312 147.804688 C 30.664062 149.417969 31.933594 151.007812 33.152344 151.9375 C 36.980469 154.867188 42.609375 153.738281 46.832031 152.304688 C 47.320312 157.683594 55.121094 156.28125 58.519531 154.585938 C 59.191406 154.25 60.960938 152.882812 61.363281 152.78125 C 61.882812 152.648438 61.855469 154.132812 62.292969 154.378906 C 65.925781 158.152344 71.449219 154.601562 74.589844 151.84375 C 80.976562 146.242188 82.800781 140.160156 87.511719 133.878906 C 87.871094 133.402344 89.039062 131.851562 89.433594 131.625 C 90.324219 131.113281 90.878906 131.625 91.757812 131.644531 C 109.324219 132.023438 119.394531 117.179688 122.703125 101.492188 C 125.492188 88.285156 121.667969 76.34375 139.613281 75.203125 C 140.371094 75.15625 141.140625 75.222656 141.902344 75.207031 C 142.066406 75.296875 143.304688 75.964844 143.625 75.625 C 143.890625 75.34375 143.488281 74.421875 142.628906 73.339844 C 139.726562 67.941406 138.917969 62.214844 133.292969 58.757812 C 127.21875 55.03125 121.066406 55.933594 115.363281 59.78125 C 111.792969 62.1875 109.277344 65.679688 105.488281 67.765625 C 100.582031 71.148438 93.898438 76.558594 87.628906 84.660156 C 81.835938 92.152344 78.386719 99.363281 76.324219 104.695312 C 70.105469 122 51.476562 127.515625 35.03125 130.398438 C 30.636719 131.171875 25.421875 131.382812 21.234375 132.398438 C 17.753906 133.242188 15.867188 135.953125 18.378906 139.070312 Z M 18.378906 139.070312 " fill-opacity="1" fill-rule="nonzero"/><path fill="#e2e3e4" d="M 113.960938 61.554688 C 112.761719 62.851562 111.378906 64.207031 109.792969 65.570312 C 106.988281 67.976562 104.242188 69.800781 101.820312 71.179688 C 101.542969 71.335938 101.1875 71.242188 101.027344 70.960938 C 100.871094 70.683594 100.96875 70.328125 101.246094 70.167969 C 103.613281 68.820312 106.296875 67.039062 109.039062 64.6875 C 110.585938 63.359375 111.9375 62.03125 113.109375 60.765625 C 113.328125 60.53125 113.695312 60.515625 113.929688 60.734375 C 114.167969 60.953125 114.179688 61.320312 113.960938 61.554688 Z M 113.960938 61.554688 " fill-opacity="1" fill-rule="nonzero"/><path fill="#e2e3e4" d="M 122.050781 106.359375 C 121.761719 107.785156 121.109375 110.527344 119.609375 113.742188 C 118.109375 116.953125 115.757812 120.644531 112.070312 123.96875 C 107.839844 127.78125 103.253906 129.84375 99.292969 130.953125 C 95.332031 132.0625 91.992188 132.21875 90.234375 132.21875 C 89.90625 132.21875 89.628906 132.210938 89.417969 132.207031 C 89.097656 132.195312 88.84375 131.929688 88.855469 131.609375 C 88.863281 131.289062 89.128906 131.035156 89.449219 131.042969 C 89.652344 131.050781 89.917969 131.054688 90.234375 131.054688 C 91.921875 131.054688 95.15625 130.902344 98.980469 129.832031 C 102.804688 128.761719 107.21875 126.777344 111.292969 123.105469 C 114.84375 119.90625 117.109375 116.351562 118.558594 113.25 C 120.003906 110.148438 120.632812 107.503906 120.910156 106.128906 C 120.972656 105.816406 121.28125 105.613281 121.59375 105.675781 C 121.910156 105.738281 122.113281 106.046875 122.050781 106.359375 Z M 122.050781 106.359375 " fill-opacity="1" fill-rule="nonzero"/><path fill="#e2e3e4" d="M 75.046875 152.207031 C 73.875 153.6875 72.503906 154.832031 71.074219 155.609375 C 69.644531 156.382812 68.152344 156.796875 66.726562 156.796875 C 65.78125 156.796875 64.863281 156.613281 64.027344 156.230469 C 63.695312 156.074219 63.167969 155.792969 62.589844 155.292969 C 62.011719 154.792969 61.386719 154.070312 60.847656 153.050781 C 60.699219 152.769531 60.804688 152.417969 61.089844 152.265625 C 61.375 152.117188 61.726562 152.222656 61.875 152.507812 C 62.347656 153.398438 62.878906 154 63.351562 154.414062 C 63.828125 154.828125 64.25 155.050781 64.515625 155.171875 C 65.183594 155.480469 65.929688 155.632812 66.726562 155.632812 C 67.925781 155.632812 69.238281 155.285156 70.519531 154.585938 C 71.800781 153.890625 73.054688 152.847656 74.136719 151.484375 C 74.335938 151.234375 74.699219 151.191406 74.953125 151.390625 C 75.203125 151.589844 75.246094 151.953125 75.046875 152.207031 Z M 75.046875 152.207031 " fill-opacity="1" fill-rule="nonzero"/><path fill="#e2e3e4" d="M 54.914062 156.207031 C 53.953125 156.710938 52.910156 156.964844 51.882812 156.964844 C 50.722656 156.96875 49.582031 156.640625 48.617188 155.976562 C 47.738281 155.371094 47.179688 154.609375 46.828125 153.941406 C 46.476562 153.273438 46.324219 152.695312 46.265625 152.433594 C 46.191406 152.121094 46.386719 151.808594 46.699219 151.738281 C 47.011719 151.664062 47.324219 151.859375 47.398438 152.171875 C 47.445312 152.378906 47.570312 152.855469 47.855469 153.398438 C 48.144531 153.941406 48.585938 154.542969 49.273438 155.015625 C 50.035156 155.539062 50.941406 155.804688 51.882812 155.804688 C 52.714844 155.804688 53.574219 155.597656 54.375 155.179688 C 54.660156 155.027344 55.011719 155.136719 55.160156 155.421875 C 55.308594 155.707031 55.199219 156.058594 54.914062 156.207031 Z M 54.914062 156.207031 " fill-opacity="1" fill-rule="nonzero"/><path fill="#e2e3e4" d="M 31.636719 145.632812 C 30.191406 145.3125 28.589844 144.875 26.878906 144.265625 C 24.722656 143.496094 22.855469 142.617188 21.292969 141.769531 C 21.011719 141.617188 20.90625 141.265625 21.058594 140.984375 C 21.210938 140.703125 21.566406 140.597656 21.847656 140.75 C 23.367188 141.570312 25.175781 142.421875 27.269531 143.167969 C 28.929688 143.761719 30.484375 144.1875 31.886719 144.496094 C 32.199219 144.566406 32.398438 144.875 32.328125 145.191406 C 32.257812 145.503906 31.949219 145.703125 31.636719 145.632812 Z M 31.636719 145.632812 " fill-opacity="1" fill-rule="nonzero"/><path fill="#e2e3e4" d="M 141.785156 75.777344 C 141.03125 75.621094 140.03125 75.480469 138.859375 75.480469 C 138.15625 75.480469 137.394531 75.53125 136.585938 75.660156 C 133.40625 76.167969 131.164062 77.621094 130.050781 78.460938 C 129.792969 78.65625 129.429688 78.605469 129.234375 78.347656 C 129.042969 78.09375 129.09375 77.730469 129.347656 77.535156 C 130.550781 76.628906 132.964844 75.0625 136.402344 74.511719 C 137.277344 74.371094 138.101562 74.316406 138.859375 74.316406 C 140.125 74.316406 141.203125 74.472656 142.015625 74.636719 C 142.332031 74.699219 142.535156 75.007812 142.472656 75.324219 C 142.40625 75.636719 142.101562 75.839844 141.785156 75.777344 Z M 141.785156 75.777344 " fill-opacity="1" fill-rule="nonzero"/><g clip-path="url(#27450d0924)"><path fill="#ffffff" d="M 2.199219 45.230469 C 0.601562 47.417969 4.019531 52.636719 4.441406 53.199219 C 6.328125 55.730469 8.910156 57.9375 10.84375 59.21875 C 10.84375 59.21875 8.984375 60.375 8.984375 60.375 C 5.941406 66.617188 13.632812 70.742188 18.273438 72.917969 C 15.691406 74.078125 14.925781 76.617188 15.910156 79.230469 C 17.503906 83.460938 23.953125 85.574219 28.03125 86.277344 C 22.789062 90.046875 27.335938 94.195312 31.6875 95.734375 C 34.207031 96.625 36.359375 96.648438 38.824219 97.191406 C 39.140625 97.257812 39.425781 97.183594 39.640625 97.535156 C 33.902344 99.890625 35.207031 104.179688 40.253906 106.445312 C 46.046875 109.042969 54.035156 109.464844 60.3125 109.5 C 58.152344 111.328125 56.007812 114.089844 58.679688 116.582031 C 61.855469 119.542969 71.78125 118.457031 75.921875 117.792969 C 78.183594 117.429688 80.375 116.71875 82.605469 116.230469 C 81.734375 120.839844 86.765625 121.5 90.035156 119.945312 C 92.273438 119.234375 99.679688 116.574219 104.933594 108.824219 C 110.257812 100.96875 109.917969 92.988281 109.734375 90.664062 C 108.765625 84.796875 106.070312 75.386719 98.222656 67.417969 C 93.710938 62.839844 88.917969 60.179688 85.390625 58.632812 C 75.042969 55.28125 64.128906 54.523438 53.574219 52.019531 C 40.476562 48.917969 28.898438 45.035156 18.503906 36.230469 C 15.183594 33.417969 12.332031 29.859375 8.988281 27.167969 C 7.046875 25.601562 4.269531 23.339844 2.023438 25.777344 C -1.558594 29.660156 2.535156 39.480469 5.269531 43.195312 C 5.296875 43.40625 5.292969 43.488281 5.257812 43.519531 C 5.15625 43.605469 4.960938 43.546875 4.925781 43.539062 C 4.445312 43.40625 2.765625 44.453125 2.199219 45.230469 Z M 2.199219 45.230469 " fill-opacity="1" fill-rule="nonzero"/></g><path fill="#e2e3e4" d="M 104.558594 74.183594 C 104.925781 74.679688 106.402344 76.730469 107.789062 79.910156 C 109.179688 83.089844 110.480469 87.402344 110.484375 92.417969 C 110.484375 95.003906 110.136719 97.773438 109.277344 100.660156 C 108.203125 104.285156 106.550781 107.316406 104.664062 109.820312 C 101.832031 113.582031 98.472656 116.160156 95.699219 117.84375 C 92.921875 119.53125 90.730469 120.320312 90.222656 120.496094 C 89.917969 120.601562 89.589844 120.4375 89.484375 120.136719 C 89.378906 119.832031 89.542969 119.5 89.84375 119.398438 C 90.449219 119.191406 94.007812 117.902344 97.921875 114.925781 C 99.878906 113.4375 101.921875 111.527344 103.734375 109.121094 C 105.546875 106.714844 107.128906 103.8125 108.164062 100.328125 C 108.988281 97.554688 109.320312 94.898438 109.320312 92.417969 C 109.320312 87.605469 108.066406 83.445312 106.726562 80.375 C 105.382812 77.304688 103.957031 75.324219 103.625 74.878906 C 103.433594 74.621094 103.488281 74.257812 103.746094 74.066406 C 104.003906 73.875 104.367188 73.929688 104.558594 74.183594 Z M 104.558594 74.183594 " fill-opacity="1" fill-rule="nonzero"/><path fill="#e2e3e4" d="M 53.679688 51.449219 C 58.421875 52.34375 63.878906 53.363281 69.9375 54.484375 C 74.75 55.375 77.777344 55.925781 80.050781 56.429688 C 82.324219 56.933594 83.855469 57.398438 85.605469 58.09375 C 89.566406 59.667969 94.53125 62.367188 99.617188 67.242188 C 99.851562 67.464844 99.859375 67.832031 99.636719 68.066406 C 99.414062 68.296875 99.046875 68.304688 98.816406 68.082031 C 93.84375 63.320312 89.023438 60.703125 85.175781 59.175781 C 83.476562 58.5 82.035156 58.0625 79.800781 57.5625 C 77.5625 57.066406 74.539062 56.515625 69.726562 55.625 C 63.667969 54.507812 58.207031 53.484375 53.464844 52.589844 C 53.152344 52.53125 52.941406 52.226562 53.003906 51.914062 C 53.0625 51.597656 53.367188 51.390625 53.679688 51.449219 Z M 53.679688 51.449219 " fill-opacity="1" fill-rule="nonzero"/><path fill="#e2e3e4" d="M 62.15625 117.464844 C 64 117.722656 66.105469 117.902344 68.421875 117.902344 C 68.894531 117.902344 69.378906 117.894531 69.871094 117.878906 C 74.96875 117.714844 79.242188 116.710938 82.425781 115.679688 C 82.730469 115.578125 83.058594 115.746094 83.15625 116.050781 C 83.257812 116.359375 83.089844 116.6875 82.785156 116.785156 C 79.519531 117.839844 75.136719 118.871094 69.90625 119.039062 C 69.402344 119.054688 68.90625 119.0625 68.421875 119.0625 C 66.046875 119.0625 63.886719 118.882812 61.992188 118.617188 C 61.675781 118.570312 61.453125 118.277344 61.5 117.960938 C 61.542969 117.640625 61.835938 117.421875 62.15625 117.464844 Z M 62.15625 117.464844 " fill-opacity="1" fill-rule="nonzero"/><path fill="#e2e3e4" d="M 24.089844 85.878906 C 24.046875 85.878906 24.007812 85.882812 23.964844 85.882812 C 21.78125 85.882812 19.792969 85.164062 18.265625 83.988281 C 16.738281 82.8125 15.664062 81.171875 15.339844 79.332031 C 15.269531 78.933594 15.234375 78.539062 15.234375 78.160156 C 15.238281 76.511719 15.835938 75.109375 16.449219 74.089844 C 17.0625 73.070312 17.707031 72.425781 17.847656 72.289062 C 18.074219 72.0625 18.445312 72.066406 18.667969 72.296875 C 18.890625 72.527344 18.886719 72.894531 18.660156 73.117188 C 18.5625 73.210938 17.984375 73.792969 17.441406 74.691406 C 16.898438 75.589844 16.398438 76.800781 16.398438 78.160156 C 16.398438 78.476562 16.425781 78.796875 16.484375 79.128906 C 16.75 80.652344 17.648438 82.046875 18.972656 83.066406 C 20.296875 84.085938 22.035156 84.71875 23.964844 84.71875 C 24 84.71875 24.039062 84.71875 24.078125 84.71875 C 24.398438 84.714844 24.660156 84.972656 24.664062 85.292969 C 24.667969 85.613281 24.414062 85.875 24.089844 85.878906 Z M 24.089844 85.878906 " fill-opacity="1" fill-rule="nonzero"/><path fill="#e2e3e4" d="M 10.523438 59.703125 C 7.664062 57.808594 5.648438 55.871094 4.339844 54.4375 C 3.09375 53.078125 2.339844 52.023438 1.875 51.128906 C 1.410156 50.242188 1.246094 49.503906 1.191406 48.878906 C 1.175781 48.679688 1.167969 48.480469 1.167969 48.289062 C 1.167969 47.230469 1.414062 46.355469 1.636719 45.765625 C 1.746094 45.464844 2.082031 45.308594 2.382812 45.421875 C 2.683594 45.535156 2.835938 45.867188 2.726562 46.167969 C 2.535156 46.675781 2.328125 47.417969 2.328125 48.289062 C 2.328125 48.449219 2.335938 48.609375 2.351562 48.777344 C 2.398438 49.289062 2.511719 49.828125 2.90625 50.59375 C 3.304688 51.359375 3.996094 52.34375 5.195312 53.652344 C 6.457031 55.03125 8.398438 56.902344 11.164062 58.734375 C 11.433594 58.914062 11.503906 59.273438 11.328125 59.542969 C 11.148438 59.808594 10.789062 59.882812 10.523438 59.703125 Z M 10.523438 59.703125 " fill-opacity="1" fill-rule="nonzero"/><g clip-path="url(#bb82151827)"><path fill="#ffffff" d="M 141.183594 79.167969 C 141.15625 79.480469 141.273438 79.695312 141.273438 79.695312 C 141.324219 79.792969 141.398438 79.882812 141.503906 79.972656 C 141.699219 80.15625 141.910156 80.230469 142.175781 80.160156 C 143.023438 79.941406 143.75 75.648438 144.078125 74.609375 C 145.125 71.304688 146.550781 68.011719 149.070312 65.554688 C 148.832031 68.230469 149.121094 69.167969 151.050781 70.890625 C 152.6875 72.351562 154.675781 73.152344 155.457031 75.535156 C 155.652344 75.339844 155.898438 75.191406 155.988281 74.910156 C 156.40625 73.585938 156.875 69.136719 156.730469 67.761719 C 156.441406 64.898438 154.152344 63.121094 151.394531 62.882812 C 152.902344 61.460938 154.402344 59.726562 156.035156 58.46875 C 156.269531 58.289062 156.332031 58.019531 156.734375 58.121094 C 156.910156 60.628906 156.867188 62.898438 159.304688 64.261719 C 162.03125 65.789062 164.78125 65.183594 167.730469 65.050781 C 167.730469 65.050781 168.007812 64.382812 168.007812 64.382812 C 166.710938 63.394531 165.324219 62.675781 164.296875 61.359375 C 163.964844 60.929688 163.839844 60.335938 163.46875 59.863281 C 161.863281 57.808594 159.964844 57.316406 157.433594 57.308594 C 157.433594 57.308594 163.851562 51.867188 163.851562 51.867188 C 167.027344 54.59375 168.65625 55.117188 172.761719 54.058594 C 173.398438 53.894531 177.050781 52.753906 177.152344 52.414062 C 177.4375 51.464844 175.207031 51.464844 174.4375 51.21875 C 171.34375 50.230469 169.039062 48.796875 165.5625 49.992188 C 166.007812 49.253906 166.5625 48.578125 166.992188 47.828125 C 167.421875 47.078125 167.96875 45.554688 168.375 45.027344 C 168.820312 44.453125 169.976562 44.011719 170.664062 43.136719 C 171.695312 41.824219 172.117188 40.324219 171.679688 38.648438 C 171.679688 38.648438 169.625 32.578125 169.625 32.578125 C 167.308594 35.089844 165.632812 37.953125 166.285156 41.488281 C 166.4375 42.300781 167.21875 43.730469 167.183594 44.285156 C 167.125 45.265625 165.417969 47.542969 164.746094 48.367188 C 164.746094 48.367188 163.890625 45.042969 163.890625 45.042969 C 163.890625 45.042969 159.0625 39.308594 159.0625 39.308594 C 158.390625 41.316406 157.800781 43.449219 158.230469 45.59375 C 158.652344 47.675781 161.003906 49.292969 162.324219 50.804688 C 162.324219 50.804688 157.546875 55.097656 157.546875 55.097656 C 156.972656 55.175781 157.261719 54.945312 157.296875 54.621094 C 157.375 53.910156 157.65625 53.238281 157.613281 52.503906 C 157.460938 49.792969 154.992188 47.996094 152.804688 46.84375 C 152.804688 46.84375 150.933594 45.117188 150.933594 45.117188 C 149.167969 49.628906 150.910156 54.621094 155.34375 56.617188 C 155.40625 56.90625 155.167969 57.019531 154.992188 57.191406 C 153.804688 58.308594 152.464844 59.335938 151.257812 60.433594 C 150.945312 60.714844 150.972656 61.511719 150.464844 61.023438 C 150.921875 56.121094 145.078125 55.984375 144.410156 51.632812 C 144.410156 51.632812 143.746094 51.632812 143.746094 51.632812 C 141.523438 56.828125 141.472656 62.652344 148.378906 63.351562 C 148.378906 63.351562 144.777344 68.691406 144.777344 68.691406 C 144.300781 69.660156 143.828125 70.628906 143.351562 71.597656 C 142.085938 75.734375 141.210938 78.789062 141.183594 79.167969 Z M 141.183594 79.167969 " fill-opacity="1" fill-rule="nonzero"/></g><path fill="#e2e3e4" d="M 173.730469 51.4375 C 172.875 51.019531 171.496094 50.46875 169.714844 50.285156 C 169.289062 50.238281 168.886719 50.222656 168.5 50.222656 C 167.34375 50.222656 166.378906 50.390625 165.699219 50.558594 C 165.386719 50.632812 165.074219 50.441406 164.996094 50.128906 C 164.921875 49.816406 165.113281 49.503906 165.425781 49.425781 C 166.171875 49.246094 167.226562 49.058594 168.5 49.058594 C 168.921875 49.058594 169.367188 49.078125 169.832031 49.128906 C 171.789062 49.328125 173.304688 49.933594 174.242188 50.394531 C 174.53125 50.535156 174.648438 50.882812 174.507812 51.171875 C 174.367188 51.460938 174.019531 51.578125 173.730469 51.4375 Z M 173.730469 51.4375 " fill-opacity="1" fill-rule="nonzero"/><path fill="#e2e3e4" d="M 162.410156 51.273438 C 161.855469 52.015625 161.011719 52.96875 159.800781 53.847656 C 158.980469 54.445312 158.195312 54.863281 157.53125 55.15625 C 157.238281 55.285156 156.894531 55.152344 156.765625 54.859375 C 156.636719 54.5625 156.769531 54.222656 157.0625 54.089844 C 157.664062 53.824219 158.375 53.449219 159.117188 52.910156 C 160.210938 52.113281 160.976562 51.25 161.480469 50.578125 C 161.675781 50.320312 162.039062 50.269531 162.296875 50.460938 C 162.550781 50.652344 162.605469 51.019531 162.410156 51.273438 Z M 162.410156 51.273438 " fill-opacity="1" fill-rule="nonzero"/><path fill="#e2e3e4" d="M 147.082031 69.0625 C 146.542969 70.28125 146.007812 71.570312 145.496094 72.925781 C 144.632812 75.207031 143.9375 77.390625 143.371094 79.441406 C 143.285156 79.75 142.964844 79.929688 142.65625 79.84375 C 142.347656 79.757812 142.164062 79.4375 142.25 79.128906 C 142.824219 77.046875 143.535156 74.832031 144.410156 72.515625 C 144.929688 71.136719 145.46875 69.828125 146.019531 68.589844 C 146.148438 68.296875 146.492188 68.164062 146.785156 68.292969 C 147.078125 68.425781 147.210938 68.769531 147.082031 69.0625 Z M 147.082031 69.0625 " fill-opacity="1" fill-rule="nonzero"/><path fill="#e2e3e4" d="M 154.515625 56.890625 C 153.675781 56.429688 152.332031 55.53125 151.261719 53.9375 C 150.632812 53.003906 150.242188 52.039062 150.007812 51.128906 C 149.777344 50.21875 149.699219 49.359375 149.699219 48.621094 C 149.699219 47.496094 149.875 46.644531 149.949219 46.316406 C 150.019531 46 150.332031 45.804688 150.644531 45.875 C 150.957031 45.945312 151.15625 46.257812 151.085938 46.570312 C 151.019531 46.855469 150.863281 47.613281 150.863281 48.621094 C 150.863281 49.28125 150.929688 50.042969 151.136719 50.84375 C 151.339844 51.640625 151.679688 52.476562 152.226562 53.289062 C 153.15625 54.675781 154.335938 55.464844 155.078125 55.875 C 155.359375 56.027344 155.460938 56.382812 155.308594 56.664062 C 155.152344 56.945312 154.796875 57.046875 154.515625 56.890625 Z M 154.515625 56.890625 " fill-opacity="1" fill-rule="nonzero"/><path fill="#e2e3e4" d="M 166.730469 43.800781 C 166.34375 43.074219 165.628906 41.507812 165.625 39.441406 C 165.625 39.199219 165.636719 38.953125 165.65625 38.699219 C 165.820312 36.75 166.597656 35.203125 167.386719 34.105469 C 167.785156 33.554688 168.1875 33.113281 168.523438 32.78125 C 168.859375 32.453125 169.132812 32.230469 169.265625 32.125 C 169.515625 31.925781 169.882812 31.96875 170.082031 32.21875 C 170.28125 32.46875 170.238281 32.835938 169.984375 33.035156 C 169.871094 33.125 169.636719 33.316406 169.335938 33.609375 C 168.890625 34.050781 168.308594 34.714844 167.816406 35.585938 C 167.324219 36.457031 166.921875 37.527344 166.816406 38.796875 C 166.796875 39.015625 166.789062 39.230469 166.789062 39.441406 C 166.789062 41.234375 167.417969 42.617188 167.757812 43.253906 C 167.90625 43.535156 167.800781 43.886719 167.515625 44.039062 C 167.234375 44.191406 166.882812 44.082031 166.730469 43.800781 Z M 166.730469 43.800781 " fill-opacity="1" fill-rule="nonzero"/><path fill="#e2e3e4" d="M 167.921875 65.601562 C 166.78125 65.996094 165.628906 66.1875 164.515625 66.1875 C 163.183594 66.1875 161.910156 65.914062 160.789062 65.398438 C 159.667969 64.878906 158.695312 64.113281 157.984375 63.128906 C 157.429688 62.363281 157.101562 61.558594 156.910156 60.804688 C 156.71875 60.054688 156.664062 59.359375 156.664062 58.796875 C 156.664062 58.382812 156.695312 58.042969 156.71875 57.8125 C 156.753906 57.496094 157.042969 57.265625 157.363281 57.300781 C 157.679688 57.335938 157.910156 57.625 157.875 57.945312 C 157.851562 58.144531 157.828125 58.4375 157.828125 58.796875 C 157.828125 59.285156 157.875 59.886719 158.035156 60.519531 C 158.195312 61.152344 158.472656 61.820312 158.925781 62.449219 C 159.511719 63.257812 160.316406 63.898438 161.277344 64.34375 C 162.234375 64.785156 163.34375 65.023438 164.515625 65.023438 C 165.496094 65.023438 166.519531 64.855469 167.539062 64.503906 C 167.84375 64.398438 168.171875 64.558594 168.277344 64.859375 C 168.386719 65.164062 168.222656 65.496094 167.921875 65.601562 Z M 167.921875 65.601562 " fill-opacity="1" fill-rule="nonzero"/><path fill="#e2e3e4" d="M 154.246094 74.859375 C 154.101562 74.3125 153.828125 73.558594 153.265625 72.839844 C 152.769531 72.203125 152.285156 71.882812 151.75 71.558594 C 151.480469 71.402344 151.199219 71.246094 150.910156 71.054688 C 150.621094 70.867188 150.324219 70.644531 150.039062 70.351562 C 149.640625 69.949219 149.246094 69.390625 148.957031 68.632812 C 148.671875 67.875 148.488281 66.917969 148.488281 65.707031 C 148.488281 65.652344 148.488281 65.597656 148.488281 65.546875 C 148.492188 65.226562 148.757812 64.96875 149.078125 64.972656 C 149.398438 64.976562 149.65625 65.238281 149.652344 65.5625 C 149.648438 65.609375 149.648438 65.65625 149.648438 65.707031 C 149.648438 66.800781 149.8125 67.613281 150.046875 68.21875 C 150.277344 68.828125 150.574219 69.238281 150.867188 69.539062 C 151.082031 69.753906 151.300781 69.921875 151.546875 70.082031 C 151.910156 70.324219 152.332031 70.535156 152.785156 70.839844 C 153.242188 71.140625 153.726562 71.535156 154.183594 72.121094 C 154.875 73.011719 155.203125 73.921875 155.371094 74.566406 C 155.453125 74.875 155.265625 75.195312 154.957031 75.277344 C 154.644531 75.355469 154.328125 75.171875 154.246094 74.859375 Z M 154.246094 74.859375 " fill-opacity="1" fill-rule="nonzero"/></g></g></svg>